<svg width="55em" height="100%" viewBox="0 0 917 586" fill="none" xmlns="http://www.w3.org/2000/svg">
<path d="M365.61 500.157C362.155 509.44 361.596 522.471 359.428 528.587C357.261 534.703 353.636 539.233 353.051 540.037C352.467 540.842 347.637 544.041 344.462 544.722C332.973 547.183 316.576 546.397 306.982 539.647C302.37 536.402 298.661 533.627 295.4 529.238C291.24 523.638 282.794 511.226 275.619 511.021C270.229 510.867 268.561 514.534 263.125 514.534C256.488 514.534 256.771 512.391 254.666 507.248C253.173 503.597 250.074 499.9 247.509 496.969C242.992 491.807 242.099 484.354 238.789 478.492C231.244 465.129 220.998 453.399 212.762 440.498C209.609 435.56 204.134 432.023 199.227 429.048C193.232 425.412 188.332 419.828 182.049 416.687C173.643 412.485 163.789 408.297 154.98 404.976C150.571 403.314 146.134 398.958 141.576 398.6C126.564 397.423 111.52 392.705 97.4586 387.54C82.5732 382.073 73.6387 376.109 65.4444 362.298C60.6436 354.206 63.1019 341.076 63.1019 332.111C63.1019 315.787 61.0302 298.291 66.0951 282.536C74.0424 257.815 92.5443 233.36 115.743 221.316C126.137 215.92 139.367 213.219 150.816 211.362C167.427 208.669 184.142 204.633 200.789 202.514C213.954 200.839 226.672 201.795 239.766 198.936C252.479 196.16 264.961 194.782 276.79 189.047C287.512 183.85 296.878 178.876 304.705 169.335C315.599 156.055 322.925 137.596 327.674 121.192C332.969 102.905 337.524 85.9842 346.675 69.0147C357.09 49.6988 371.077 33.6572 388.71 20.6112C420.32 -2.77664 467.609 -3.34176 504.338 4.60691C546.604 13.7538 580.886 39.1567 589.709 82.2866C591.462 90.8557 594.505 98.3978 594.785 107.334C595.493 129.984 597.341 152.377 600.771 174.8C604.875 201.631 614.953 239.893 644.888 248.055C661.771 252.659 676.47 255.629 691.933 264.775C700.183 269.654 711.033 272.317 718.221 278.633C733.567 292.116 733.22 313.835 731.886 332.176C731.227 341.232 725.054 348.22 720.174 355.662C715.425 362.902 708.87 370.766 702.605 376.806C685.13 393.653 656.977 391.574 634.477 391.574C610.238 391.574 586.339 388.061 562.055 388.061C536.424 388.061 512.859 389.802 487.485 393.916C468.562 396.984 452.673 402.283 435.169 409.856C420.74 416.098 405.743 422.118 394.175 433.146C384.482 442.388 383.292 456.363 379.079 468.473C375.292 479.36 369.62 489.381 365.61 500.157Z" fill="#C5FFDF"/>
<circle cx="698.473" cy="378" r="8" fill="#C4C4C4"/>
<circle cx="272.473" cy="481" r="6" fill="#C4C4C4"/>
<circle cx="193.473" cy="391" r="4" fill="#C4C4C4"/>
<circle cx="515.473" cy="270" r="3" fill="#C4C4C4"/>
<path d="M823.478 224.583C827.613 238.195 821.434 254.301 806.569 271.808C791.714 289.304 768.231 308.139 737.904 327.183C677.254 365.268 589.282 404.156 488.365 434.812C387.447 465.467 292.709 482.082 221.123 484.166C185.328 485.208 155.336 482.616 133.259 476.339C111.169 470.059 97.0752 460.111 92.9401 446.499C88.805 432.886 94.9842 416.78 109.849 399.274C124.705 381.778 148.187 362.942 178.514 343.899C239.164 305.813 327.136 266.926 428.053 236.27C528.971 205.614 623.709 189 695.295 186.916C731.09 185.874 761.082 188.465 783.159 194.742C805.249 201.023 819.343 210.97 823.478 224.583Z" stroke="#CCCCCC" stroke-width="0.5"/>
<path d="M651.376 280.157C653.438 286.945 650.364 295.007 642.89 303.809C635.424 312.601 623.617 322.074 608.358 331.655C577.844 350.817 533.578 370.385 482.792 385.812C432.007 401.24 384.336 409.599 348.319 410.648C330.309 411.172 315.229 409.867 304.134 406.713C293.027 403.555 285.988 398.566 283.926 391.777C281.864 384.989 284.938 376.928 292.412 368.125C299.878 359.333 311.685 349.861 326.944 340.279C357.458 321.118 401.724 301.549 452.509 286.122C503.295 270.695 550.966 262.335 586.982 261.287C604.992 260.763 620.073 262.067 631.168 265.221C642.275 268.379 649.314 273.369 651.376 280.157Z" stroke="#CCCCCC" stroke-width="0.5"/>
<path d="M751.437 249.761C754.642 260.311 749.857 272.806 738.309 286.406C726.77 299.996 708.528 314.629 684.964 329.425C637.84 359.017 569.484 389.234 491.068 413.055C412.651 436.875 339.038 449.785 283.417 451.404C255.604 452.213 232.305 450.2 215.157 445.324C197.996 440.445 187.069 432.723 183.864 422.173C180.66 411.624 185.445 399.129 196.993 385.529C208.532 371.939 226.774 357.306 250.338 342.509C297.462 312.917 365.818 282.701 444.234 258.88C522.651 235.06 596.264 222.15 651.885 220.531C679.698 219.721 702.997 221.735 720.145 226.611C737.306 231.49 748.233 239.212 751.437 249.761Z" stroke="#CCCCCC" stroke-width="0.5"/>
<path d="M878.943 207.734C884.048 224.54 877.228 244.154 860.398 265.269C843.574 286.376 816.786 308.929 782.075 331.584C712.657 376.892 611.605 422.574 495.373 457.882C379.14 493.19 269.753 511.433 186.863 512.392C145.417 512.871 110.61 509.029 84.8882 500.846C59.1577 492.66 42.5805 480.152 37.4755 463.347C32.3705 446.541 39.1898 426.927 56.0199 405.812C72.844 384.705 99.6326 362.152 134.343 339.497C203.761 294.189 304.813 248.507 421.045 213.199C537.278 177.891 646.665 159.647 729.555 158.689C771.001 158.21 805.808 162.052 831.53 170.235C857.26 178.421 873.838 190.928 878.943 207.734Z" stroke="#CCCCCC" stroke-width="0.5"/>
<path fill-rule="evenodd" clip-rule="evenodd" d="M338.981 92H390.835L376.092 181.424H414.159C468.95 181.424 496.896 229.338 493.375 271.51C493.375 279.874 492.391 287.714 490.604 295.015C486.746 293.384 482.43 292.486 477.752 292.486C456.363 292.486 438.364 309.223 438.364 330.685C438.364 338.91 440.717 347.363 445.29 354.14C444.378 354.656 443.463 355.155 442.545 355.635C422.546 367.91 402.571 367.634 385.58 367.399H385.579C383.315 367.368 381.103 367.338 378.952 367.338L281.473 363.805L327.278 101.863C328.275 96.1597 333.211 92 338.981 92ZM445.29 354.14C450.782 362.28 459.479 368 471.151 368C488.974 368 507.238 354.973 510.099 333.114C512.334 316.035 504.387 300.843 490.604 295.015C483.806 322.784 465.387 342.762 445.29 354.14ZM429.783 277.693C426.922 299.552 408.658 312.579 390.835 312.579C369.446 312.579 358.048 293.37 358.048 275.264C358.048 253.802 376.047 237.066 397.436 237.066C418.825 237.066 432.643 255.834 429.783 277.693Z" fill="black"/>
<path d="M296.341 437.944C296.341 437.944 301.297 437.394 302.089 431.563C302.838 426.282 300.381 424 293.925 424H282.554L278.473 453.577H289.968C297.216 453.577 300.673 451.042 301.506 445.169C302.422 438.408 296.383 437.944 296.383 437.944H296.341ZM289.885 450.746H282.513L284.096 439.465H291.468C296.383 439.465 298.215 441.155 297.674 445.169C297.132 449.141 294.925 450.746 289.927 450.746H289.885ZM285.887 426.831H293.092C297.299 426.831 298.798 428.268 298.299 431.732C297.799 435.282 295.841 436.803 291.676 436.803H284.47L285.845 426.831H285.887Z" fill="black"/>
<path d="M317.981 432.028C314.608 432.028 312.733 433.803 311.567 437.352L311.734 432.451H309.027L306.111 453.577H309.443L310.901 443.014C311.692 437.268 313.15 435.239 317.19 435.239H319.481L319.939 432.028H317.981Z" fill="black"/>
<path d="M333.845 432.028C326.764 432.028 323.265 435.324 322.182 443.014C321.099 450.704 323.682 454 330.762 454C337.801 454 341.3 450.704 342.383 443.014C343.466 435.324 340.884 432.028 333.845 432.028ZM325.514 443.014C326.306 437.225 328.597 434.859 333.428 434.859C338.218 434.859 339.842 437.225 339.051 443.014C338.26 448.761 335.927 451.169 331.179 451.169C326.389 451.169 324.723 448.761 325.514 443.014Z" fill="black"/>
<path d="M354.71 442.592L366.081 432.451H361.999L351.295 442.169L353.794 424H350.462L346.38 453.577H349.712L351.17 443.014L359.917 453.577H363.998L354.752 442.592H354.71Z" fill="black"/>
<path d="M370.211 444.873H386.205L386.413 443.479C387.538 435.451 385.081 432.028 378.333 432.028C371.502 432.028 368.17 435.324 367.087 443.014C366.004 450.704 368.462 454 375.251 454C380.416 454 383.373 451.972 385.039 447.282H381.873C380.582 450.366 378.833 451.507 375.626 451.507C371.502 451.507 369.961 449.437 370.211 444.873ZM383.206 442.592H370.461C371.252 436.887 373.543 434.521 377.958 434.521C382.415 434.521 383.998 436.803 383.206 442.592Z" fill="black"/>
<path d="M403.633 432.028C399.801 432.028 397.344 433.676 395.928 437.352L396.094 432.451H393.387L390.471 453.577H393.803L395.386 442.169C396.094 437.014 398.093 434.859 402.175 434.859C407.09 434.859 406.84 439.042 406.299 442.887L404.799 453.577H408.131L409.714 442.169C410.714 435.07 408.881 432.028 403.633 432.028Z" fill="black"/>
<path d="M420.177 454C423.55 454 426.466 453.324 428.132 449.606V453.577H430.839L432.797 439.592C433.547 434.31 431.297 432.028 425.466 432.028C419.552 432.028 416.72 434.056 416.053 438.789H419.26C419.718 435.62 421.343 434.31 425.05 434.31C428.673 434.31 430.006 435.746 429.506 439.211L429.34 440.31H425.8C420.593 440.31 414.929 440.606 413.971 447.493C413.304 452.437 416.136 454 420.177 454ZM428.673 445.38C428.09 449.563 425.883 451.338 421.926 451.338C418.261 451.338 416.969 450.239 417.386 447.282C417.844 443.986 419.885 442.592 424.175 442.592H429.09L428.715 445.38H428.673Z" fill="black"/>
<path d="M443.415 447.408L445.122 434.944H451.453L451.786 432.451H445.456L446.164 427.423H442.79L442.082 432.451H438.75L438.416 434.944H441.749L439.958 447.789C439.458 451.296 441.124 453.577 445.039 453.577H448.829L449.204 450.746H446.497C443.956 450.746 443.04 449.394 443.331 447.408H443.415Z" fill="black"/>
<path d="M465.753 432.028C458.672 432.028 455.174 435.324 454.091 443.014C453.008 450.704 455.59 454 462.671 454C469.71 454 473.208 450.704 474.291 443.014C475.374 435.324 472.792 432.028 465.753 432.028ZM457.423 443.014C458.214 437.225 460.505 434.859 465.336 434.859C470.126 434.859 471.751 437.225 470.959 443.014C470.168 448.761 467.835 451.169 463.087 451.169C458.297 451.169 456.631 448.761 457.423 443.014Z" fill="black"/>
<path d="M496.198 442.211C496.906 437.056 498.697 434.901 502.279 434.901C505.486 434.901 506.569 437.099 505.861 442.211L504.278 453.62H507.61L509.193 442.211C510.193 435.113 508.527 432.07 503.945 432.07C500.197 432.07 497.822 433.761 496.448 437.563C496.198 433.761 494.449 432.07 491.117 432.07C487.535 432.07 485.244 433.549 483.869 436.887L483.911 432.451H481.204L478.288 453.577H481.62L483.203 442.169C483.911 437.014 485.702 434.859 489.326 434.859C492.574 434.859 493.574 436.972 492.866 442.169L491.283 453.577H494.657L496.24 442.211H496.198Z" fill="black"/>
</svg>
