<svg width="36" height="36" viewBox="0 0 46 46" fill="none" xmlns="http://www.w3.org/2000/svg">
<circle cx="23" cy="23" r="23" fill="#4C4C4C"/>
<path fill-rule="evenodd" clip-rule="evenodd" d="M18.4418 7H22.8726C23.1811 7 23.416 7.27669 23.366 7.58113L21.9642 16.1054C21.9392 16.2577 22.0566 16.396 22.2109 16.396H25.906C31.6483 16.396 34.5771 21.4304 34.2081 25.8616C34.2081 26.7404 34.105 27.5642 33.9177 28.3313C33.5133 28.1599 33.061 28.0656 32.5708 28.0656C30.3292 28.0656 28.4428 29.8241 28.4428 32.0792C28.4428 32.9435 28.6893 33.8317 29.1686 34.5437C29.073 34.5979 28.9771 34.6503 28.881 34.7008C26.785 35.9905 24.6915 35.9615 22.9108 35.9369C22.6734 35.9336 22.4417 35.9304 22.2162 35.9304L13.1458 35.6008C12.5399 35.5788 12.0928 35.027 12.197 34.4297L16.7288 8.44721C16.8748 7.61038 17.5973 7 18.4418 7ZM29.1686 34.5437C29.7443 35.399 30.6557 36 31.8789 36C33.7469 36 35.661 34.6312 35.9608 32.3344C36.195 30.5399 35.3622 28.9437 33.9177 28.3313C33.2052 31.2491 31.2749 33.3482 29.1686 34.5437ZM27.5434 26.5112C27.2436 28.808 25.3295 30.1768 23.4615 30.1768C21.2199 30.1768 20.0254 28.1584 20.0254 26.256C20.0254 24.0009 21.9118 22.2424 24.1534 22.2424C26.395 22.2424 27.8432 24.2144 27.5434 26.5112Z" fill="white"/>
</svg>
